<svg xmlns="http://www.w3.org/2000/svg" xmlns:xlink="http://www.w3.org/1999/xlink" width="500" zoomAndPan="magnify" viewBox="0 0 375 374.999991" height="500" preserveAspectRatio="xMidYMid meet" version="1.0"><defs><g/><clipPath id="b75aba2418"><path d="M 132 101 L 259 101 L 259 236.414062 L 132 236.414062 Z M 132 101 " clip-rule="nonzero"/></clipPath><clipPath id="ab49ea4fc3"><path d="M 103.824219 70.664062 L 271 70.664062 L 271 216 L 103.824219 216 Z M 103.824219 70.664062 " clip-rule="nonzero"/></clipPath></defs><g clip-path="url(#b75aba2418)"><path fill="#1d1d22" d="M 132.238281 215.285156 L 160.816406 165.789062 L 187.449219 211.921875 L 241.628906 118.878906 L 235.273438 115.207031 L 258.304688 101.910156 L 258.304688 128.503906 L 252.265625 125.019531 L 187.449219 236.414062 L 160.816406 190.28125 L 146.382812 215.285156 Z M 132.238281 215.285156 " fill-opacity="1" fill-rule="evenodd"/></g><g clip-path="url(#ab49ea4fc3)"><path fill="#0093c3" d="M 145.703125 142.976562 L 103.960938 215.285156 L 118.101562 215.285156 L 125.175781 203.039062 L 160.816406 141.292969 L 180.378906 175.175781 L 187.449219 187.425781 L 194.519531 175.175781 L 214.078125 141.292969 L 221.152344 129.042969 L 214.078125 116.796875 L 194.519531 82.914062 L 187.449219 70.664062 L 160.816406 116.796875 L 153.75 129.046875 Z M 235.339844 178.117188 L 213.710938 215.285156 L 270.9375 215.285156 L 262.976562 201.496094 L 242.4375 165.917969 Z M 207.011719 129.042969 L 187.449219 162.929688 L 167.886719 129.046875 L 187.449219 95.160156 Z M 207.011719 129.042969 " fill-opacity="1" fill-rule="evenodd"/></g><g fill="#1d1d22" fill-opacity="1"><g transform="translate(160.99676, 215.425591)"><g/></g></g><g fill="#1d1d22" fill-opacity="1"><g transform="translate(179.675897, 215.425591)"><g/></g></g><g fill="#1d1d22" fill-opacity="1"><g transform="translate(84.063171, 297.925586)"><g/></g></g><g fill="#1d1d22" fill-opacity="1"><g transform="translate(102.731139, 297.925586)"><g><path d="M 37.242188 -0.710938 L 19.214844 -47.085938 C 19.035156 -47.5625 18.207031 -47.5625 18.027344 -47.085938 L 0.0585938 -0.710938 C -0.117188 -0.355469 0.117188 0 0.652344 0 L 8.777344 0 C 9.015625 0 9.308594 -0.117188 9.371094 -0.355469 L 18.621094 -26.804688 L 27.992188 -0.355469 C 28.050781 -0.117188 28.347656 0 28.523438 0 L 36.707031 0 C 37.125 0 37.417969 -0.355469 37.242188 -0.710938 Z M 37.242188 -0.710938 "/></g></g></g><g fill="#1d1d22" fill-opacity="1"><g transform="translate(145.721988, 297.925586)"><g><path d="M 23.128906 -33.328125 C 23.128906 -28.109375 16.128906 -28.109375 16.128906 -28.109375 L 9.015625 -28.109375 L 9.015625 -38.960938 L 16.128906 -38.960938 C 16.128906 -38.960938 23.128906 -39.019531 23.128906 -33.328125 Z M 32.203125 -33.863281 C 32.203125 -47.796875 16.128906 -47.441406 16.128906 -47.441406 L 0.652344 -47.441406 C 0.296875 -47.441406 0 -47.144531 0 -46.910156 L 0 -19.273438 L 16.128906 -19.273438 C 16.128906 -19.273438 23.78125 -19.628906 23.78125 -14.054688 C 23.78125 -9.488281 19.09375 -8.65625 16.128906 -8.65625 L 9.074219 -8.65625 L 9.074219 0 L 16.128906 0 C 19.332031 0 32.855469 -0.59375 32.855469 -13.816406 C 32.855469 -13.816406 33.148438 -21.171875 25.617188 -23.722656 C 29.234375 -25.203125 32.203125 -28.347656 32.203125 -33.863281 Z M 32.203125 -33.863281 "/></g></g></g><g fill="#1d1d22" fill-opacity="1"><g transform="translate(184.087685, 297.925586)"><g><path d="M 27.277344 -23.601562 C 27.277344 -26.09375 25.320312 -28.109375 22.832031 -28.109375 C 20.339844 -28.109375 18.382812 -26.09375 18.382812 -23.601562 C 18.382812 -21.171875 20.339844 -19.15625 22.832031 -19.15625 C 25.320312 -19.15625 27.277344 -21.171875 27.277344 -23.601562 Z M 45.664062 -23.78125 C 45.664062 -35.582031 38.011719 -47.441406 22.890625 -47.441406 C 7.53125 -47.441406 0 -35.582031 0 -23.78125 C 0 -11.917969 7.53125 0 22.890625 0 C 38.011719 0 45.664062 -11.917969 45.664062 -23.78125 Z M 36.765625 -23.601562 C 36.765625 -15.953125 32.082031 -8.300781 22.890625 -8.300781 C 13.582031 -8.300781 8.953125 -15.953125 8.953125 -23.601562 C 8.953125 -31.371094 13.582031 -39.082031 22.890625 -39.082031 C 32.082031 -39.082031 36.765625 -31.371094 36.765625 -23.601562 Z M 36.765625 -23.601562 "/></g></g></g><g fill="#1d1d22" fill-opacity="1"><g transform="translate(235.854471, 297.925586)"><g><path d="M 24.730469 -38.605469 L 18.503906 -21.230469 L 9.25 -47.085938 C 9.191406 -47.324219 8.953125 -47.441406 8.65625 -47.441406 L 0.59375 -47.441406 C 0.117188 -47.441406 -0.117188 -47.085938 0.0585938 -46.730469 L 17.910156 -0.296875 C 18.148438 0.117188 18.859375 0.117188 19.035156 -0.296875 L 33.863281 -38.605469 Z M 24.730469 -38.605469 "/></g></g></g></svg>